<svg xmlns="http://www.w3.org/2000/svg" xmlns:xlink="http://www.w3.org/1999/xlink" width="500" zoomAndPan="magnify" viewBox="0 0 375 374.999991" height="500" preserveAspectRatio="xMidYMid meet" version="1.0"><defs><g/><clipPath id="5ac5cd1de0"><path d="M 296 1 L 348.121094 1 L 348.121094 108 L 296 108 Z M 296 1 " clip-rule="nonzero"/></clipPath><clipPath id="9437f24cb9"><rect x="0" width="53" y="0" height="107"/></clipPath><clipPath id="09d48f579f"><path d="M 0.839844 0.960938 L 314 0.960938 L 314 146.640625 L 0.839844 146.640625 Z M 0.839844 0.960938 " clip-rule="nonzero"/></clipPath><clipPath id="01126de826"><rect x="0" width="314" y="0" height="147"/></clipPath><clipPath id="5f6bb0914d"><rect x="0" width="349" y="0" height="147"/></clipPath></defs><g transform="matrix(1, 0, 0, 1, 15, 114)"><g clip-path="url(#5f6bb0914d)"><g clip-path="url(#5ac5cd1de0)"><g transform="matrix(1, 0, 0, 1, 296, 1)"><g clip-path="url(#9437f24cb9)"><g fill="#c8a84b" fill-opacity="1"><g transform="translate(39.860989, 103.485161)"><g><path d="M -25.40625 -1.890625 L -25.40625 -11.890625 C -25.40625 -14.140625 -24.90625 -16.117188 -23.90625 -17.828125 C -22.90625 -19.546875 -21.457031 -20.878906 -19.5625 -21.828125 C -17.664062 -22.785156 -15.398438 -23.265625 -12.765625 -23.265625 C -10.078125 -23.265625 -7.78125 -22.78125 -5.875 -21.8125 C -3.96875 -20.851562 -2.515625 -19.507812 -1.515625 -17.78125 C -0.523438 -16.050781 -0.03125 -14.0625 -0.03125 -11.8125 L -0.03125 -1.890625 Z M -5.109375 -10.765625 C -5.109375 -12.742188 -5.675781 -14.3125 -6.8125 -15.46875 C -7.945312 -16.632812 -9.929688 -17.21875 -12.765625 -17.21875 C -15.585938 -17.21875 -17.566406 -16.644531 -18.703125 -15.5 C -19.835938 -14.351562 -20.40625 -12.773438 -20.40625 -10.765625 L -20.40625 -7.359375 L -5.109375 -7.359375 Z M -5.109375 -10.765625 "/></g></g></g><g fill="#c8a84b" fill-opacity="1"><g transform="translate(39.860989, 82.534472)"><g><path d="M -5.875 -16.3125 L -5.875 -8.1875 L 0 -6.375 L 0 -0.65625 L -25.375 -9.671875 L -25.375 -14.9375 L 0 -23.890625 L 0 -18.15625 Z M -10.1875 -14.9375 L -18.375 -12.328125 L -18.375 -12.109375 L -10.1875 -9.5625 Z M -10.1875 -14.9375 "/></g></g></g><g fill="#c8a84b" fill-opacity="1"><g transform="translate(39.860989, 62.81618)"><g><path d="M -20.4375 -20.234375 L -20.4375 -13.5625 L 0 -13.5625 L 0 -7.9375 L -20.4375 -7.9375 L -20.4375 -1.265625 L -25.375 -1.265625 L -25.375 -20.234375 Z M -20.4375 -20.234375 "/></g></g></g><g fill="#c8a84b" fill-opacity="1"><g transform="translate(39.860989, 43.351613)"><g><path d="M -20.4375 -7.578125 L -15.046875 -7.578125 L -15.046875 -17.21875 L -10.65625 -17.21875 L -10.65625 -7.578125 L -4.9375 -7.578125 L -4.9375 -19.03125 L 0 -19.03125 L 0 -1.890625 L -25.375 -1.890625 L -25.375 -19.03125 L -20.4375 -19.03125 Z M -20.4375 -7.578125 "/></g></g></g><g fill="#c8a84b" fill-opacity="1"><g transform="translate(39.860989, 24.829444)"><g><path d="M 0.328125 -11.28125 C 0.328125 -9.25 -0.0664062 -7.488281 -0.859375 -6 C -1.660156 -4.507812 -2.707031 -3.382812 -4 -2.625 C -5.289062 -1.863281 -6.640625 -1.484375 -8.046875 -1.484375 L -8.34375 -1.484375 L -8.34375 -7.6875 L -8.078125 -7.6875 C -7.210938 -7.6875 -6.414062 -8 -5.6875 -8.625 C -4.96875 -9.25 -4.609375 -10.164062 -4.609375 -11.375 C -4.609375 -12.414062 -4.875 -13.25 -5.40625 -13.875 C -5.9375 -14.507812 -6.632812 -14.828125 -7.5 -14.828125 C -8.269531 -14.828125 -8.890625 -14.546875 -9.359375 -13.984375 C -9.835938 -13.429688 -10.160156 -12.757812 -10.328125 -11.96875 L -10.90625 -9.0625 C -11.289062 -7.375 -12.015625 -5.789062 -13.078125 -4.3125 C -14.148438 -2.84375 -15.894531 -2.109375 -18.3125 -2.109375 C -19.875 -2.109375 -21.222656 -2.488281 -22.359375 -3.25 C -23.492188 -4.007812 -24.363281 -5.066406 -24.96875 -6.421875 C -25.570312 -7.773438 -25.875 -9.304688 -25.875 -11.015625 C -25.875 -12.972656 -25.5 -14.664062 -24.75 -16.09375 C -24.007812 -17.519531 -23.039062 -18.59375 -21.84375 -19.3125 C -20.644531 -20.039062 -19.394531 -20.40625 -18.09375 -20.40625 L -17.90625 -20.40625 L -17.90625 -14.203125 L -18.015625 -14.203125 C -18.785156 -14.203125 -19.503906 -13.929688 -20.171875 -13.390625 C -20.835938 -12.847656 -21.171875 -11.984375 -21.171875 -10.796875 C -21.171875 -9.878906 -20.914062 -9.148438 -20.40625 -8.609375 C -19.894531 -8.066406 -19.234375 -7.796875 -18.421875 -7.796875 C -17.617188 -7.796875 -16.988281 -8.097656 -16.53125 -8.703125 C -16.070312 -9.304688 -15.757812 -10.03125 -15.59375 -10.875 L -14.9375 -13.8125 C -14.519531 -15.71875 -13.742188 -17.347656 -12.609375 -18.703125 C -11.472656 -20.054688 -9.820312 -20.734375 -7.65625 -20.734375 C -6.050781 -20.734375 -4.644531 -20.320312 -3.4375 -19.5 C -2.226562 -18.675781 -1.296875 -17.546875 -0.640625 -16.109375 C 0.00390625 -14.671875 0.328125 -13.0625 0.328125 -11.28125 Z M 0.328125 -11.28125 "/></g></g></g></g></g></g><g clip-path="url(#09d48f579f)"><g><g clip-path="url(#01126de826)"><g fill="#c8a84b" fill-opacity="1"><g transform="translate(1.566346, 105.230895)"><g><path d="M 82.140625 -95.515625 C 78.453125 -95.316406 75.585938 -94.515625 73.546875 -93.109375 C 71.515625 -91.703125 69.941406 -89.738281 68.828125 -87.21875 C 67.710938 -84.695312 66.429688 -80.96875 64.984375 -76.03125 L 52.046875 -30.53125 C 49.617188 -21.800781 46.710938 -15.304688 43.328125 -11.046875 C 40.316406 -7.265625 36.628906 -4.113281 32.265625 -1.59375 C 27.910156 0.925781 23.3125 2.1875 18.46875 2.1875 C 14.300781 2.1875 10.59375 0.953125 7.34375 -1.515625 C 4.09375 -3.992188 2.46875 -7.316406 2.46875 -11.484375 C 2.46875 -14.296875 3.289062 -16.671875 4.9375 -18.609375 C 6.59375 -20.546875 8.773438 -21.515625 11.484375 -21.515625 C 13.804688 -21.515625 15.597656 -20.785156 16.859375 -19.328125 C 18.117188 -17.878906 18.75 -16.476562 18.75 -15.125 C 18.75 -14.25 18.554688 -13.472656 18.171875 -12.796875 C 17.785156 -12.117188 17.15625 -11.242188 16.28125 -10.171875 C 15.113281 -8.816406 14.53125 -7.800781 14.53125 -7.125 C 14.53125 -6.0625 14.96875 -5.066406 15.84375 -4.140625 C 16.71875 -3.222656 17.929688 -2.765625 19.484375 -2.765625 C 23.359375 -2.765625 26.554688 -4.75 29.078125 -8.71875 C 31.597656 -12.695312 33.972656 -18.707031 36.203125 -26.75 L 49.859375 -74.4375 L 51.3125 -79.671875 C 51.507812 -80.242188 51.898438 -81.570312 52.484375 -83.65625 C 53.066406 -85.738281 53.359375 -87.269531 53.359375 -88.25 C 53.359375 -91.15625 52.21875 -93.09375 49.9375 -94.0625 C 47.65625 -95.03125 44.382812 -95.515625 40.125 -95.515625 L 40.84375 -98.125 L 82.859375 -98.125 Z M 82.140625 -95.515625 "/></g></g></g><g fill="#c8a84b" fill-opacity="1"><g transform="translate(64.075123, 105.230895)"><g><path d="M 64.6875 -95.515625 C 60.132812 -95.316406 56.960938 -94.753906 55.171875 -93.828125 C 53.378906 -92.910156 52.238281 -91.484375 51.75 -89.546875 C 51.269531 -87.609375 50.832031 -83.972656 50.4375 -78.640625 L 46.671875 -22.390625 L 46.953125 -22.09375 L 94.34375 -83.15625 C 96.675781 -86.15625 97.84375 -88.578125 97.84375 -90.421875 C 97.84375 -92.066406 97.160156 -93.328125 95.796875 -94.203125 C 94.441406 -95.078125 92.695312 -95.515625 90.5625 -95.515625 L 90.5625 -98.125 L 119.359375 -98.125 L 119.359375 -95.515625 C 115.960938 -95.316406 112.273438 -93.59375 108.296875 -90.34375 C 104.328125 -87.101562 100.453125 -83.109375 96.671875 -78.359375 L 33.296875 2.328125 L 30.96875 2.328125 L 36.046875 -74.140625 L 36.78125 -84.75 C 36.78125 -86.976562 36.535156 -88.796875 36.046875 -90.203125 C 35.566406 -91.609375 34.429688 -92.816406 32.640625 -93.828125 C 30.847656 -94.847656 28.0625 -95.410156 24.28125 -95.515625 L 24.28125 -98.125 L 64.6875 -98.125 Z M 64.6875 -95.515625 "/></g></g></g><g fill="#c8a84b" fill-opacity="1"><g transform="translate(158.420169, 105.230895)"><g><path d="M 70.21875 -20.5 L 126.328125 -98.125 L 153.8125 -98.125 L 153.078125 -95.515625 C 148.617188 -95.515625 145.226562 -94.929688 142.90625 -93.765625 C 140.582031 -92.597656 138.765625 -90.753906 137.453125 -88.234375 C 136.140625 -85.722656 134.707031 -81.753906 133.15625 -76.328125 L 118.328125 -24.5625 L 117.3125 -21.21875 C 116.445312 -18.3125 115.816406 -16.035156 115.421875 -14.390625 C 115.035156 -12.742188 114.84375 -11.335938 114.84375 -10.171875 C 114.84375 -7.078125 115.929688 -5.039062 118.109375 -4.0625 C 120.296875 -3.09375 123.328125 -2.609375 127.203125 -2.609375 L 126.328125 0 L 80.390625 0 L 81.265625 -2.609375 C 86.109375 -2.609375 89.71875 -3.019531 92.09375 -3.84375 C 94.46875 -4.675781 96.40625 -6.328125 97.90625 -8.796875 C 99.40625 -11.265625 100.984375 -15.359375 102.640625 -21.078125 L 119.78125 -80.6875 L 119.5 -80.96875 L 61.5 0 L 58.59375 0 L 49.421875 -80.96875 L 49.140625 -80.96875 L 31.109375 -20.5 C 30.429688 -18.363281 29.847656 -16.347656 29.359375 -14.453125 C 28.878906 -12.566406 28.640625 -10.945312 28.640625 -9.59375 C 28.640625 -7.070312 29.628906 -5.273438 31.609375 -4.203125 C 33.597656 -3.140625 36.484375 -2.609375 40.265625 -2.609375 L 39.390625 0 L 5.671875 0 L 6.546875 -2.609375 C 10.898438 -2.609375 14.21875 -3.164062 16.5 -4.28125 C 18.78125 -5.394531 20.550781 -7.140625 21.8125 -9.515625 C 23.070312 -11.890625 24.425781 -15.550781 25.875 -20.5 L 46.8125 -89.984375 C 45.351562 -92.210938 43.460938 -93.691406 41.140625 -94.421875 C 38.816406 -95.148438 36.148438 -95.515625 33.140625 -95.515625 L 33.875 -98.125 L 61.5 -98.125 Z M 70.21875 -20.5 "/></g></g></g></g></g></g></g></g></svg>